<svg version="1.2" xmlns="http://www.w3.org/2000/svg" viewBox="0 0 1224 1224" width="80" height="80">
	<style>
		.s0 { fill: #f05a29 } 
		.s1 { fill: #ffffff } 
		.s2 { fill: #fefefe } 
		.s3 { fill: #00adee } 
	</style>
	<g id="Layer 1">
		<g id="&lt;Group&gt;">
			<g id="&lt;Group&gt;">
			</g>
			<g id="&lt;Group&gt;">
			</g>
			<g id="&lt;Group&gt;">
			</g>
			<g id="&lt;Group&gt;">
			</g>
			<g id="&lt;Group&gt;">
			</g>
			<g id="&lt;Group&gt;">
			</g>
			<g id="&lt;Group&gt;">
			</g>
		</g>
		<g id="&lt;Group&gt;">
			<g id="&lt;Group&gt;">
				<path id="&lt;Compound Path&gt;" fill-rule="evenodd" class="s0" d="m762.82 511.1q0 0.05-0.04 0.1l-33.06 69.8c-5.58 11.64-11.16 23.3-16.58 35.02-4.04 8.72-10.32 12.66-19.98 12.64-56.04-0.16-112.08-0.08-168.12-0.08q-1.62 0.01-3.24 0c-3.62-0.08-7.2 0.68-8.36 4.38-0.68 2.18-0.26 5.28 0.88 7.3 2 3.56 5.98 3.44 9.54 2.96 1.12-0.16 2.22-1.48 3.1-2.46 13.86-15.16 35.18-14.98 48.78 0.28 1.12 1.26 3.3 2.2 5 2.22 17.92 0.16 35.82 0.18 53.72-0.02 1.94-0.02 4.38-1.22 5.72-2.66 9.84-10.64 24.16-13.94 37.12-8.26 12.34 5.4 20.18 18.72 18.92 32.16-1.3 13.82-11.42 25.3-25.5 28.18-12 2.44-22.28-1.26-30.36-10.44-1.94-2.2-3.8-3.04-6.68-3.02q-25.93 0.18-51.86 0c-2.9-0.02-4.7 0.9-6.62 3.1-13.04 14.82-35.2 14.86-47.96 0-2.24-2.62-4.54-2.96-7.56-3.1-18.04-0.86-31.68-9.06-39.1-25.68-7.24-16.2-4.8-31.68 6.46-45.44 2.98-3.64 6.94-6.46 10.84-10.02q-19.83-74-39.78-148.4c-15.94 0-31.52 0.02-47.1 0-10.84-0.02-18.6-7.1-18.98-17.3-0.36-9.86 7.34-18.22 18-18.38 20.38-0.32 40.76-0.28 61.14-0.04 10.02 0.12 15.82 5.18 18.5 15.02 3.56 13.2 7.08 26.44 10.76 40.18h30.74c-2.2 2.98-3.64 6.7-4.2 10.98q-0.15 1.21-0.32 2.42h-28.72c-7.18 0-8.54-1.04-10.34-7.82-3.18-11.9-6.26-23.84-9.52-35.7-3.46-12.54-1.7-11.14-14.76-11.16-17.14-0.04-34.28 0-51.42-0.02-2.84-0.02-5.66 0.38-5.82 3.78-0.16 3.56 2.72 4.42 5.7 4.64 1.08 0.08 2.16 0.02 3.24 0.02q23.16-0.01 46.32 0c6.22 0 7.8 1.2 9.42 7.22q20.59 76.72 41.14 153.44c2.14 7.96 1.58 9.18-5.76 13.22-11.96 6.56-16.58 17.8-15.54 27.36 1.64 14.9 10.58 24.66 23.68 27.2 1.4 0.28 4.42-1.04 4.46-1.76 0.12-2.32 1.8-5.46-2.82-6.4-11-2.24-18.5-12.64-17.18-22.98 1.42-10.98 10.24-18.5 21.8-18.5 56.66 0 113.32-0.06 169.98 0.12 5.58 0.02 8.7-1.72 11.06-6.82 9.18-19.84 18.66-39.5 28.08-59.2q0.23-0.49 0.46-0.98l3.56-8.46 15.36-36.46c0.46-5.2-1.26-9.26-3.72-12.34q-0.08-0.09-0.14-0.18c-4.94-5.98-12.74-8.22-12.74-8.22h-23.7q-0.88-6.67-1.76-13.34 8.28 0.01 16.56 0.02 0.62-0.01 1.18-0.04h23.04c4.7 1.12 14.18 4.44 18.24 13.36 1.06 2.32 1.76 5.04 1.88 8.22 0.26 5.38-1.14 12.06-5.04 20.34z"/>
			</g>
		</g>
		<g id="&lt;Group&gt;">
			<g id="&lt;Group&gt;">
				<path id="&lt;Path&gt;" class="s1" d="m607.89 665.16c-6.64 0-13.27-0.07-19.9 0.04-2.73 0.04-4.35-0.48-4.32-3.77 0.03-3 1.08-4.11 4.06-4.09q20.13 0.12 40.25 0c2.95-0.02 4.08 1.03 4.1 4.06 0.03 3.27-1.54 3.84-4.3 3.8-6.63-0.11-13.26-0.04-19.89-0.04z"/>
			</g>
		</g>
		<g id="&lt;Group&gt;">
			<g id="&lt;Group&gt;">
				<path id="&lt;Path&gt;" class="s1" d="m551.24 650.98c6.08-0.06 11.11 4.64 11.26 10.53 0.15 5.62-5.19 10.99-10.95 11.03-6.07 0.03-10.69-4.71-10.69-10.99-0.01-6.22 4.2-10.5 10.38-10.57z"/>
			</g>
		</g>
		<g id="&lt;Group&gt;">
			<g id="&lt;Group&gt;">
				<path id="&lt;Path&gt;" class="s1" d="m664.19 650.88c6.4-0.05 10.78 4.31 10.74 10.68-0.04 6.05-4.96 11.02-10.82 10.94-5.53-0.07-10.96-5.71-10.82-11.21 0.15-5.65 5.09-10.37 10.9-10.41z"/>
			</g>
		</g>
		<g id="&lt;Group&gt;">
			<g id="&lt;Group&gt;">
				<path id="&lt;Path&gt;" class="s2" d="m745.16 490.76h-28.58c-1 0.18-2.26 0.22-3.84 0.22h-2.9q-0.56-4.22-1.12-8.44h23.7c0 0 7.8 2.24 12.74 8.22z"/>
			</g>
		</g>
		<g id="&lt;Group&gt;">
			<g id="&lt;Group&gt;">
				<path id="&lt;Path&gt;" class="s2" d="m749.02 503.28l-15.36 36.46-3.56 8.46q-0.23 0.49-0.46 0.98c-9.42 19.7-18.9 39.36-28.08 59.2-2.36 5.1-5.48 6.84-11.06 6.82-56.66-0.18-113.32-0.12-169.98-0.12-11.56 0-20.38 7.52-21.8 18.5-1.32 10.34 6.18 20.74 17.18 22.98 4.62 0.94 2.94 4.08 2.82 6.4-0.04 0.72-3.06 2.04-4.46 1.76-13.1-2.54-22.04-12.3-23.68-27.2-1.04-9.56 3.58-20.8 15.54-27.36 7.34-4.04 7.9-5.26 5.76-13.22q-20.55-76.72-41.14-153.44c-1.62-6.02-3.2-7.22-9.42-7.22q-23.16-0.01-46.32 0c-1.08 0-2.16 0.06-3.24-0.02-2.98-0.22-5.86-1.08-5.7-4.64 0.16-3.4 2.98-3.8 5.82-3.78 17.14 0.02 34.28-0.02 51.42 0.02 13.06 0.02 11.3-1.38 14.76 11.16 3.26 11.86 6.34 23.8 9.52 35.7 1.8 6.78 3.16 7.82 10.34 7.82h28.72q-0.53 4.23-1.1 8.44h-18.44c-1.56 0-3.1-0.06-4.64 0.02-6.18 0.3-9.24 4.24-7.66 10.22 7.2 27.22 14.5 54.44 21.76 81.64 1.48 5.5 2.92 11.02 4.42 16.52 1.52 5.58 3.7 7.26 9.58 7.28 51.88 0 103.74-0.04 155.62 0.06 5.24 0.02 8.18-2.24 10.32-6.8 8.5-18.14 17.12-36.2 25.76-54.28l23.04-54.7c2.46 3.08 4.18 7.14 3.72 12.34z"/>
			</g>
		</g>
		<g id="&lt;Group&gt;">
			<g id="&lt;Group&gt;">
				<path id="&lt;Path&gt;" class="s2" d="m748.83 482.54l-3.46 8.22h-0.22c-4.94-5.98-12.74-8.22-12.74-8.22z"/>
			</g>
		</g>
		<g id="&lt;Group&gt;">
			<g id="&lt;Group&gt;">
				<path id="&lt;Path&gt;" class="s2" d="m754.29 490.76l-5.28 12.52c0.46-5.2-1.26-9.26-3.72-12.34q-0.08-0.09-0.14-0.18c-4.94-5.98-12.74-8.22-12.74-8.22h16.42c6.18 5.04 5.46 8.22 5.46 8.22z"/>
			</g>
		</g>
		<g id="&lt;Group&gt;">
			<g id="&lt;Group&gt;">
				<g id="&lt;Group&gt;">
					<path id="&lt;Compound Path&gt;" fill-rule="evenodd" class="s3" d="m553.06 470.73c0-4.52-0.26-8.65 0.05-12.74 0.89-11.81 11.46-21.86 23.17-22.28 13.14-0.48 24.49 8.23 26.27 20.49 0.67 4.65 0.59 9.4 0.86 14.32 2.86 0.19 5.8 0.39 9.1 0.62 0.48-3.37 0.9-6.83 1.48-10.26 1.15-6.88 5-10.08 12-10.09 1.18 0 2.35 0 3.85 0 0-3.82-0.06-7.32 0.01-10.82 0.26-13.43 11.45-24.24 25.05-24.22 13.54 0.01 24.8 10.91 25.04 24.27 0.07 3.43 0.01 6.85 0.01 10.77 1.76 0 3.42-0.02 5.08 0.01 5.43 0.1 9.9 3.9 10.62 9.26 2.88 21.53 5.68 43.06 8.53 64.58q0.76 5.68 1.61 11.35c1.23 8.4-3.47 13.85-11.99 13.85q-31.12 0.01-62.24 0c-1.09 0-2.18 0-3.53 0 0.34 2.53 0.61 4.8 0.95 7.04 1.08 6.99-3.81 12.88-10.91 12.89q-40.18 0.06-80.36-0.01c-6.82-0.01-11.66-5.68-10.78-12.39q4.99-37.98 9.95-75.95c0.9-6.93 5.12-10.67 12.19-10.69 1.1 0 2.2 0 3.99 0zm-15.91 74.88c1.46 0 2.54 0 3.63 0q14.49 0.02 28.98-0.01c2.12 0 4.01 0.62 4.44 2.76 0.27 1.38-0.04 3.32-0.89 4.33-0.79 0.95-2.63 1.37-4.02 1.39-10.27 0.11-20.53 0.03-30.8 0.11-0.9 0-2.51 0.59-2.6 1.11-0.71 4.11-1.03 6.08 3.95 6.05 24.96-0.13 49.92-0.06 74.88-0.06q1.51 0.01 3.02-0.05c1.98-0.1 2.93-1.09 2.64-3.13q-0.42-2.83-0.8-5.67-4.52-34.17-9.05-68.34c-0.68-5.1-1.89-5.82-7.38-4.37 0 2.15 0.11 4.37-0.02 6.57-0.18 2.93-2 4.66-4.55 4.55-2.47-0.1-3.9-1.71-4.01-4.69-0.08-2.26-0.01-4.53-0.01-6.8-11.26 0-22 0-33.07 0 0 1.32 0 2.5-0.01 3.67 0 1.21 0.08 2.43-0.05 3.62-0.31 2.72-2.13 4.38-4.59 4.18-2.67-0.21-3.89-1.85-3.94-4.42-0.04-2.29-0.01-4.59-0.01-6.82-6.37-1.09-7.01-0.64-7.68 5.12-0.15 1.3-0.38 2.58-0.55 3.88q-2.6 19.4-5.17 38.81c-0.78 5.95-1.53 11.9-2.34 18.21zm92.53-86.12c-1.03-0.06-1.53-0.11-2.03-0.11-4.42-0.08-4.56-0.03-5.24 4.23q-0.89 5.66-1.51 11.35c-0.44 3.99-1.39 8.05-0.98 11.97 1.25 11.98 3.07 23.91 4.59 35.87 0.27 2.11 1.09 2.84 3.27 2.79 6.14-0.15 12.28-0.12 18.43-0.01 1.32 0.03 3.13 0.27 3.83 1.13 0.94 1.15 1.79 3.38 1.27 4.45-0.68 1.4-2.72 2.92-4.23 2.99-6.81 0.32-13.65 0.14-20.89 0.14 0.33 2.46 0.6 4.58 0.89 6.78 1.06 0.05 1.86 0.12 2.65 0.12q31.11 0.01 62.23 0.01 1.21 0.01 2.41-0.08c2.23-0.19 3.11-1.16 2.72-3.6-1.04-6.54-1.83-13.12-2.7-19.69-2.44-18.52-4.83-37.04-7.41-55.53-0.15-1.06-1.62-2.27-2.77-2.77-1.07-0.48-2.51-0.11-4.1-0.11 0 2.54 0.06 4.84-0.02 7.13-0.1 2.71-1.82 4.5-4.24 4.57-2.54 0.08-4.38-1.76-4.47-4.62-0.08-2.28-0.02-4.57-0.02-6.89-11.18 0-21.98 0-32.94 0 0 2.45 0.06 4.66-0.02 6.86-0.09 2.85-1.94 4.72-4.47 4.66-2.43-0.06-4.15-1.84-4.24-4.55-0.08-2.29-0.01-4.58-0.01-7.09zm41.79-8.86c0-3.68 0.15-7.01-0.03-10.31-0.48-8.56-6.4-14.85-14.87-16.03-7.26-1-15.3 3.81-17.22 11.26-1.23 4.81-1.01 10.01-1.45 15.08 11.64 0 22.46 0 33.57 0zm-77.1 19.96c0-3.83 0.18-7.44-0.04-11.03-0.51-8.27-6.71-14.47-15.1-15.36-7.57-0.8-15.4 4.46-17.08 12.27-0.97 4.51-0.65 9.3-0.92 14.12 11.29 0 22.01 0 33.14 0z"/>
				</g>
			</g>
			<g id="&lt;Group&gt;">
				<g id="&lt;Group&gt;">
					<path id="&lt;Compound Path&gt;" fill-rule="evenodd" class="s0" d="m537.15 545.61c0.81-6.31 1.56-12.26 2.34-18.21q2.57-19.41 5.17-38.81c0.17-1.3 0.4-2.58 0.55-3.88 0.67-5.76 1.31-6.21 7.68-5.12 0 2.23-0.03 4.53 0.01 6.82 0.05 2.57 1.27 4.21 3.94 4.42 2.46 0.2 4.28-1.46 4.59-4.18 0.13-1.19 0.05-2.41 0.05-3.62 0.01-1.17 0.01-2.35 0.01-3.67 11.07 0 21.81 0 33.07 0 0 2.27-0.07 4.54 0.01 6.8 0.11 2.98 1.54 4.59 4.01 4.69 2.55 0.11 4.37-1.62 4.55-4.55 0.13-2.2 0.02-4.42 0.02-6.57 5.49-1.45 6.7-0.73 7.38 4.37q4.53 34.17 9.05 68.34 0.38 2.84 0.8 5.67c0.29 2.04-0.66 3.03-2.64 3.13q-1.51 0.06-3.02 0.05c-24.96 0-49.92-0.07-74.88 0.06-4.98 0.03-4.66-1.94-3.95-6.05 0.09-0.52 1.7-1.11 2.6-1.11 10.27-0.08 20.53 0 30.8-0.11 1.39-0.02 3.23-0.44 4.02-1.39 0.85-1.01 1.16-2.95 0.89-4.33-0.43-2.14-2.32-2.76-4.44-2.76q-14.49 0.03-28.98 0.01c-1.09 0-2.17 0-3.63 0zm47.27 8.53c3.28 0.01 5.43-1.69 5.43-4.28 0-2.5-2.07-4.21-5.14-4.25-3.33-0.03-5.47 1.54-5.57 4.11-0.11 2.58 2.07 4.4 5.28 4.42z"/>
				</g>
			</g>
			<g id="&lt;Group&gt;">
				<g id="&lt;Group&gt;">
					<path id="&lt;Compound Path&gt;" fill-rule="evenodd" class="s0" d="m629.68 459.49c0 2.51-0.07 4.8 0.01 7.09 0.09 2.71 1.81 4.49 4.24 4.55 2.53 0.06 4.38-1.81 4.47-4.66 0.08-2.2 0.02-4.41 0.02-6.86 10.96 0 21.76 0 32.94 0 0 2.32-0.06 4.61 0.02 6.89 0.09 2.86 1.93 4.7 4.47 4.62 2.42-0.07 4.14-1.86 4.24-4.57 0.08-2.29 0.02-4.59 0.02-7.13 1.59 0 3.03-0.37 4.1 0.11 1.15 0.5 2.62 1.71 2.77 2.77 2.58 18.49 4.97 37.01 7.41 55.53 0.87 6.57 1.66 13.15 2.7 19.69 0.39 2.44-0.49 3.41-2.72 3.6q-1.2 0.09-2.41 0.08-31.12 0-62.23-0.01c-0.79 0-1.59-0.07-2.65-0.12-0.29-2.2-0.56-4.32-0.89-6.78 7.24 0 14.08 0.18 20.89-0.14 1.51-0.07 3.55-1.59 4.23-2.99 0.52-1.07-0.33-3.3-1.27-4.45-0.7-0.86-2.51-1.1-3.83-1.13-6.15-0.11-12.29-0.14-18.43 0.01-2.18 0.05-3-0.68-3.27-2.79-1.52-11.96-3.34-23.89-4.59-35.87-0.41-3.92 0.54-7.98 0.98-11.97q0.62-5.69 1.51-11.35c0.68-4.26 0.82-4.31 5.24-4.23 0.5 0 1 0.05 2.03 0.11zm31.78 74.8c3.37-0.01 5.3-1.56 5.35-4.3 0.05-2.87-1.9-4.46-5.47-4.45-3.3 0.01-5.36 1.64-5.42 4.28-0.06 2.74 2.09 4.48 5.54 4.47z"/>
				</g>
			</g>
			<g id="&lt;Group&gt;">
				<g id="&lt;Group&gt;">
					<path id="&lt;Path&gt;" class="s3" d="m584.42 554.14c-3.21-0.02-5.39-1.84-5.28-4.42 0.1-2.57 2.24-4.14 5.57-4.11 3.07 0.04 5.14 1.75 5.14 4.25 0 2.59-2.15 4.29-5.43 4.28z"/>
				</g>
			</g>
			<g id="&lt;Group&gt;">
				<g id="&lt;Group&gt;">
					<path id="&lt;Path&gt;" class="s3" d="m661.46 534.29c-3.45 0.01-5.6-1.73-5.54-4.47 0.06-2.64 2.12-4.27 5.42-4.28 3.57-0.01 5.52 1.58 5.47 4.45-0.05 2.74-1.98 4.29-5.35 4.3z"/>
				</g>
			</g>
		</g>
		<g id="&lt;Group&gt;">
			<g id="&lt;Group&gt;">
				<g id="&lt;Group&gt;">
					<path id="&lt;Compound Path&gt;" class="s2" d="m597.4 493.75v8.38h-27.46v-8.38zm0 14.84v8.38h-19.09v18.84h-8.38v-27.22z"/>
				</g>
			</g>
		</g>
		<g id="&lt;Group&gt;">
			<g id="&lt;Group&gt;">
				<g id="&lt;Group&gt;">
					<path id="&lt;Compound Path&gt;" class="s2" d="m663.71 493.97l13.73 24.08h-9.61l-9.67-16.87-4.49 5.91-8.38 10.96v-42.06h8.38v17.3l13.24-17.3h10.53z"/>
				</g>
			</g>
		</g>
		<g id="&lt;Group&gt;">
			<g id="&lt;Group&gt;">
			</g>
			<g id="&lt;Group&gt;">
			</g>
			<g id="&lt;Group&gt;">
			</g>
			<g id="&lt;Group&gt;">
			</g>
			<g id="&lt;Group&gt;">
			</g>
			<g id="&lt;Group&gt;">
			</g>
			<g id="&lt;Group&gt;">
			</g>
			<g id="&lt;Group&gt;">
			</g>
		</g>
		<g id="&lt;Group&gt;">
			<g id="&lt;Group&gt;">
				<g id="&lt;Group&gt;">
				</g>
			</g>
			<g id="&lt;Group&gt;">
				<g id="&lt;Group&gt;">
				</g>
			</g>
			<g id="&lt;Group&gt;">
				<g id="&lt;Group&gt;">
				</g>
			</g>
		</g>
	</g>
</svg>